<svg width="32" height="32" viewBox="0 0 32 32" fill="none" xmlns="http://www.w3.org/2000/svg">
<g clip-path="url(#clip0_83_493)">
<path d="M22.0642 0H6.27767C3.97139 0 2.09424 1.52925 2.09424 3.40588V16H1.68557C0.754739 16 0 16.6139 0 17.3723V25.6955C0 26.4539 0.754739 27.068 1.68557 27.068H2.09424V28.5941C2.09424 30.4728 3.97147 32 6.27767 32H27.8179C30.1228 32 32 30.4727 32 28.5941V8.06066L22.0642 0ZM8.0512 23.5752C8.53504 23.5752 9.07146 23.4895 9.3876 23.3871L9.62899 24.4058C9.33477 24.5261 8.67183 24.6549 7.80973 24.6549C5.35842 24.6549 4.09603 23.4132 4.09603 21.7688C4.09603 19.7992 5.82147 18.7029 7.96723 18.7029C8.79844 18.7029 9.42934 18.8399 9.7132 18.9593L9.3876 19.9958C9.06118 19.8839 8.60898 19.7815 8.04101 19.7815C6.7677 19.7815 5.77907 20.4069 5.77907 21.6915C5.77907 22.8473 6.62063 23.5752 8.0512 23.5752ZM27.8178 29.9142H6.27767C5.38467 29.9142 4.6574 29.3221 4.6574 28.5941V27.068H24.7373C25.6683 27.068 26.4231 26.4539 26.4231 25.6955V17.3723C26.4231 16.6139 25.6683 16 24.7373 16H4.6574V3.40588C4.6574 2.67985 5.38467 2.08783 6.27767 2.08783L21.1059 2.07528V6.53759C21.1059 7.84091 22.4048 8.89952 24.007 8.89952L29.3762 8.88704L29.4366 28.5941C29.4366 29.3221 28.7107 29.9142 27.8178 29.9142ZM12.4519 22.1454C11.2736 21.8118 10.5054 21.2804 10.5054 20.4414C10.5054 19.4559 11.5151 18.7029 13.188 18.7029C13.9871 18.7029 14.5769 18.8399 14.997 18.9937L14.6398 20.0471C14.3559 19.9362 13.8509 19.7729 13.1565 19.7729C12.4621 19.7729 12.1255 20.0304 12.1255 20.3296C12.1255 20.6977 12.525 20.8609 13.4404 21.1433C14.6925 21.5199 15.2815 22.0513 15.2815 22.8651C15.2815 23.8326 14.3661 24.6549 12.4203 24.6549C11.6102 24.6549 10.8104 24.4833 10.4109 24.3033L10.7371 23.2249C11.1683 23.4049 11.8312 23.5837 12.5147 23.5837C13.251 23.5837 13.6402 23.3358 13.6402 22.9591C13.6403 22.5994 13.3037 22.3933 12.4519 22.1454ZM18.1353 22.1454C16.9572 21.8118 16.1888 21.2804 16.1888 20.4414C16.1888 19.4559 17.1987 18.7029 18.8714 18.7029C19.6714 18.7029 20.2597 18.8399 20.6811 18.9937L20.3234 20.0471C20.0394 19.9362 19.5345 19.7729 18.84 19.7729C18.1456 19.7729 17.809 20.0304 17.809 20.3296C17.809 20.6977 18.2085 20.8609 19.124 21.1433C20.3761 21.5199 20.9653 22.0513 20.9653 22.8651C20.9653 23.8326 20.0499 24.6549 18.1039 24.6549C17.2938 24.6549 16.4939 24.4833 16.0944 24.3033L16.4208 23.2249C16.8518 23.4049 17.5148 23.5837 18.1983 23.5837C18.9345 23.5837 19.3238 23.3358 19.3238 22.9591C19.3238 22.5994 18.9871 22.3933 18.1353 22.1454Z" fill="#FFD369"/>
</g>
<defs>
<clipPath id="clip0_83_493">
<rect width="32" height="32" fill="white"/>
</clipPath>
</defs>
</svg>
