<svg width="32" height="32" viewBox="0 0 32 32" fill="none" xmlns="http://www.w3.org/2000/svg">
<g clip-path="url(#clip0_83_483)">
<path d="M18.7939 15.9266C18.7939 13.7364 16.4223 12.3601 14.5353 13.4552C12.6482 14.5503 12.6482 17.3029 14.5353 18.398C16.4223 19.4931 18.7939 18.1168 18.7939 15.9266ZM25.2946 10.666C27.1734 1.68532 23.04 -1.13287 16.0133 5.36776C9.39995 -0.832267 4.69043 1.12168 6.69448 10.6284C-2.54685 13.4143 -1.93457 18.6587 6.76963 21.3375C4.77811 30.0927 8.49813 33.2867 16.0133 26.6733C23.303 33.2115 27.1719 30.1503 25.1818 21.3C34.676 18.081 33.8243 13.4215 25.2946 10.666ZM24.017 10.3278C22.5276 9.99182 21.0864 9.74727 19.6206 9.61384C18.8483 8.48462 17.9488 7.35663 16.9151 6.30716C22.5488 0.903386 25.8691 2.59186 24.017 10.3278ZM9.4751 17.6551C10.0325 18.845 10.7652 19.9347 11.3163 20.849C10.4189 20.7573 9.45211 20.6179 8.42298 20.4357C8.75274 19.5126 9.10382 18.5857 9.4751 17.6551ZM9.39995 14.4236C8.98998 13.4395 8.61587 12.4897 8.31025 11.6054C9.37266 11.3851 10.4137 11.1852 11.3163 11.1169C10.6446 12.1721 10.0065 13.2754 9.39995 14.4236ZM10.189 16.0769C11.1079 14.2367 12.0799 12.4899 13.1575 10.929C15.0697 10.819 16.9615 10.8288 18.8315 10.9666C19.8803 12.428 20.8592 14.1747 21.8 16.0769C21.096 17.5317 20.0963 19.2084 18.9442 20.9994C17.0207 21.145 15.0483 21.1249 13.0448 20.9994C12.0294 19.4437 11.0758 17.8052 10.189 16.0769ZM22.514 17.6551C22.8788 18.5405 23.216 19.4429 23.5285 20.3606C22.5641 20.5636 21.6127 20.7116 20.6727 20.8115C21.3161 19.8146 21.9265 18.7562 22.514 17.6551ZM20.6727 11.1169C21.6973 11.2571 22.687 11.4323 23.6412 11.6429C23.322 12.5916 22.9593 13.5187 22.5515 14.4236C21.9699 13.2764 21.3454 12.1724 20.6727 11.1169ZM17.7794 9.46354C16.6091 9.41763 15.4186 9.4191 14.2097 9.46354C14.7389 8.7675 15.3288 8.04042 15.9757 7.28414C16.6062 7.96469 17.2036 8.69721 17.7794 9.46354ZM15.0739 6.30716C14.0402 7.35663 13.1407 8.44704 12.3684 9.57627C10.9027 9.70969 9.42392 9.95425 7.93449 10.2902C6.16842 2.43684 9.4403 0.903386 15.0739 6.30716ZM7.10782 20.0975C-0.720503 17.7428 -0.344744 14.0729 7.03267 11.906C7.48395 13.2754 8.03029 14.6662 8.64843 16.0018C8.04778 17.383 7.51604 18.8016 7.10782 20.0975ZM8.08479 21.6757C9.41248 22.0014 10.8195 22.1577 12.2933 22.3145C13.1801 23.566 14.0985 24.7295 15.0739 25.7339C9.33732 31.2325 6.13936 29.2348 8.08479 21.6757ZM15.9757 24.7945C15.296 24.0906 14.6613 23.293 14.0594 22.4272C15.4011 22.4555 16.6969 22.4586 17.9297 22.4272C17.3326 23.2743 16.6806 24.0625 15.9757 24.7945ZM16.9151 25.7339C17.9618 24.5967 18.8845 23.4439 19.6958 22.2769C21.0804 22.1751 22.4832 21.9623 23.9043 21.6381C25.8673 29.684 22.303 30.8721 16.9151 25.7339ZM24.8437 20.0224C24.4412 18.7264 23.9329 17.383 23.3406 16.0018C23.9501 14.6662 24.4738 13.313 24.9188 11.9436C32.1209 14.123 32.697 17.605 24.8437 20.0224Z" fill="#FFD369"/>
</g>
<defs>
<clipPath id="clip0_83_483">
<rect width="32" height="32" fill="white"/>
</clipPath>
</defs>
</svg>
